<svg id="svg" version="1.1" xmlns="http://www.w3.org/2000/svg" xmlns:xlink="http://www.w3.org/1999/xlink" width="400" height="240.9298085688241" viewBox="0, 0, 400,240.9298085688241"><g id="svgg"><path id="path0" d="M115.500 53.083 C 115.500 53.236,115.581 53.334,115.679 53.301 C 115.778 53.269,115.858 53.170,115.858 53.083 C 115.858 52.996,115.778 52.898,115.679 52.865 C 115.581 52.832,115.500 52.931,115.500 53.083 M108.001 53.329 C 107.814 53.447,107.800 53.533,107.944 53.678 C 108.089 53.822,108.182 53.782,108.324 53.518 C 108.524 53.143,108.406 53.073,108.001 53.329 M105.500 54.083 C 105.500 54.221,105.575 54.333,105.667 54.333 C 105.758 54.333,105.833 54.221,105.833 54.083 C 105.833 53.946,105.758 53.833,105.667 53.833 C 105.575 53.833,105.500 53.946,105.500 54.083 M102.966 54.970 C 102.387 55.244,102.369 55.275,102.674 55.466 C 102.955 55.641,103.000 55.625,103.000 55.350 C 103.000 55.113,103.086 55.054,103.333 55.118 C 103.565 55.179,103.667 55.123,103.667 54.936 C 103.667 54.614,103.725 54.611,102.966 54.970 M101.098 55.885 C 100.864 56.056,100.836 56.149,100.989 56.243 C 101.230 56.392,101.566 56.115,101.475 55.842 C 101.432 55.712,101.317 55.725,101.098 55.885 M97.167 58.583 C 96.951 58.813,96.859 59.000,96.961 59.000 C 97.063 59.000,97.189 58.932,97.240 58.849 C 97.292 58.766,97.484 58.737,97.667 58.785 C 97.922 58.852,98.000 58.790,98.000 58.519 C 98.000 58.047,97.645 58.074,97.167 58.583 M95.929 59.778 C 95.878 59.910,95.946 59.946,96.119 59.880 C 96.313 59.806,96.350 59.839,96.252 59.997 C 96.160 60.145,96.179 60.178,96.310 60.098 C 96.418 60.031,96.454 59.894,96.392 59.793 C 96.319 59.675,96.378 59.648,96.556 59.716 C 96.709 59.775,96.833 59.751,96.833 59.663 C 96.833 59.432,96.023 59.534,95.929 59.778 M95.019 60.779 C 94.675 61.168,94.506 61.507,94.558 61.706 C 94.617 61.930,94.585 61.974,94.445 61.859 C 94.311 61.749,94.150 61.833,93.930 62.127 C 93.736 62.386,93.703 62.500,93.847 62.415 C 93.977 62.339,93.933 62.455,93.750 62.673 C 93.567 62.891,93.362 63.148,93.294 63.243 C 93.227 63.339,92.982 63.654,92.750 63.943 C 92.166 64.674,91.760 65.663,92.039 65.677 C 92.155 65.683,92.093 65.751,91.900 65.829 C 91.687 65.915,91.399 66.349,91.161 66.944 C 90.946 67.479,90.721 67.954,90.660 68.000 C 90.474 68.140,90.372 68.986,90.546 68.950 C 90.879 68.882,90.857 69.358,90.523 69.446 C 90.158 69.541,89.907 70.048,90.083 70.333 C 90.221 70.555,90.016 71.196,89.842 71.088 C 89.699 71.000,89.443 71.999,89.575 72.131 C 89.777 72.333,90.198 71.971,90.118 71.665 C 90.070 71.482,90.083 71.333,90.145 71.333 C 90.250 71.333,93.173 74.168,93.606 74.689 C 93.710 74.814,94.160 75.239,94.606 75.634 C 95.052 76.028,95.492 76.432,95.583 76.530 C 95.675 76.628,96.181 77.150,96.708 77.689 C 97.284 78.277,97.667 78.814,97.667 79.033 C 97.667 79.387,97.673 79.388,97.902 79.075 C 98.031 78.898,98.098 78.690,98.049 78.611 C 97.873 78.326,98.025 74.576,98.253 73.601 C 98.381 73.049,98.453 72.564,98.411 72.522 C 98.370 72.481,98.419 72.348,98.520 72.226 C 98.621 72.104,98.654 71.874,98.593 71.716 C 98.532 71.557,98.538 71.482,98.606 71.550 C 98.764 71.709,99.380 70.377,99.247 70.162 C 99.192 70.073,99.219 70.000,99.307 70.000 C 99.394 70.000,99.626 69.695,99.820 69.321 C 100.015 68.948,100.102 68.687,100.015 68.741 C 99.928 68.795,99.809 68.763,99.752 68.669 C 99.694 68.576,99.789 68.500,99.962 68.500 C 100.135 68.500,100.377 68.313,100.500 68.083 C 100.623 67.854,100.783 67.667,100.857 67.667 C 100.931 67.667,100.917 67.469,100.825 67.227 C 100.733 66.985,100.695 66.749,100.741 66.703 C 100.788 66.657,100.873 66.742,100.931 66.893 C 101.075 67.270,101.276 67.236,101.386 66.817 C 101.436 66.624,101.557 66.516,101.655 66.576 C 101.764 66.643,101.833 66.519,101.833 66.256 C 101.833 65.963,101.705 65.768,101.429 65.642 C 101.207 65.541,100.981 65.280,100.926 65.062 C 100.864 64.814,100.705 64.667,100.500 64.667 C 100.290 64.667,100.136 64.517,100.068 64.250 C 100.005 63.996,99.845 63.833,99.660 63.833 C 99.493 63.833,99.303 63.668,99.239 63.466 C 99.093 63.005,98.833 62.742,98.384 62.599 C 98.191 62.538,97.987 62.303,97.930 62.077 C 97.865 61.820,97.708 61.667,97.508 61.667 C 97.326 61.667,97.139 61.509,97.073 61.299 C 96.943 60.892,96.748 60.685,96.204 60.375 C 95.682 60.078,95.622 60.098,95.019 60.779 M96.730 61.653 C 96.641 61.750,95.833 60.977,95.833 60.794 C 95.833 60.712,96.050 60.857,96.314 61.115 C 96.579 61.372,96.766 61.615,96.730 61.653 M109.000 61.722 C 109.000 62.049,109.146 62.141,109.514 62.045 C 109.824 61.963,109.826 61.948,109.546 61.735 C 109.167 61.447,109.000 61.443,109.000 61.722 M116.208 61.875 C 116.246 61.990,116.419 62.111,116.592 62.144 C 116.864 62.197,116.876 62.169,116.683 61.936 C 116.418 61.617,116.109 61.578,116.208 61.875 M106.651 62.603 C 106.457 62.835,106.470 62.864,106.741 62.811 C 106.914 62.777,107.087 62.656,107.125 62.542 C 107.224 62.244,106.915 62.284,106.651 62.603 M105.597 63.107 C 105.539 63.258,105.530 63.418,105.575 63.464 C 105.682 63.571,106.167 63.173,106.167 62.980 C 106.167 62.721,105.706 62.824,105.597 63.107 M103.993 64.005 C 103.861 64.086,103.871 64.145,104.028 64.202 C 104.293 64.300,104.667 64.190,104.667 64.014 C 104.667 63.857,104.241 63.851,103.993 64.005 M103.408 64.625 C 103.346 64.831,103.228 65.000,103.147 65.000 C 103.066 65.000,103.000 65.092,103.000 65.204 C 103.000 65.317,103.156 65.251,103.353 65.054 C 103.547 64.860,103.665 64.600,103.614 64.476 C 103.552 64.323,103.486 64.371,103.408 64.625 M102.268 65.597 C 102.111 66.005,102.145 66.059,102.417 65.833 C 102.694 65.603,102.748 65.333,102.518 65.333 C 102.436 65.333,102.323 65.452,102.268 65.597 M89.333 72.733 C 89.333 73.041,89.402 73.130,89.583 73.060 C 89.721 73.008,89.833 72.930,89.833 72.887 C 89.833 72.844,89.721 72.697,89.583 72.560 C 89.361 72.337,89.333 72.357,89.333 72.733 M127.333 73.010 C 127.333 73.199,127.408 73.307,127.500 73.250 C 127.592 73.193,127.667 73.039,127.667 72.907 C 127.667 72.775,127.592 72.667,127.500 72.667 C 127.408 72.667,127.333 72.821,127.333 73.010 M89.333 73.740 C 89.333 73.975,89.408 74.167,89.500 74.167 C 89.592 74.167,89.667 74.021,89.667 73.843 C 89.667 73.665,89.592 73.473,89.500 73.417 C 89.405 73.358,89.333 73.498,89.333 73.740 M136.111 78.278 C 135.911 78.477,135.994 79.296,136.223 79.383 C 136.384 79.445,136.454 79.287,136.472 78.818 C 136.496 78.208,136.370 78.019,136.111 78.278 M98.127 79.097 C 97.892 79.476,97.871 80.154,98.085 80.445 C 98.279 80.709,98.323 80.715,98.409 80.493 C 98.537 80.165,98.273 78.861,98.127 79.097 M127.358 79.898 C 127.142 80.415,127.227 80.673,127.517 80.383 C 127.615 80.285,127.664 80.028,127.627 79.811 C 127.561 79.425,127.555 79.426,127.358 79.898 M135.667 81.240 C 135.667 81.372,135.742 81.527,135.833 81.583 C 135.925 81.640,136.000 81.532,136.000 81.343 C 136.000 81.154,135.925 81.000,135.833 81.000 C 135.742 81.000,135.667 81.108,135.667 81.240 M98.637 81.428 C 98.580 81.646,98.696 81.948,98.955 82.260 C 99.302 82.676,99.332 82.689,99.159 82.343 C 99.046 82.119,98.903 81.745,98.840 81.511 C 98.736 81.120,98.720 81.113,98.637 81.428 M126.614 82.436 C 126.662 82.563,126.807 82.667,126.934 82.667 C 127.281 82.667,127.215 82.385,126.846 82.288 C 126.621 82.229,126.551 82.273,126.614 82.436 M125.940 83.583 C 125.881 83.736,125.939 83.833,126.089 83.833 C 126.223 83.833,126.333 83.721,126.333 83.583 C 126.333 83.446,126.266 83.333,126.184 83.333 C 126.103 83.333,125.992 83.446,125.940 83.583 M134.833 84.240 C 134.833 84.626,135.121 84.694,135.215 84.331 C 135.272 84.117,135.220 84.000,135.068 84.000 C 134.939 84.000,134.833 84.108,134.833 84.240 M125.280 84.634 C 124.970 84.976,124.832 85.661,125.083 85.615 C 125.175 85.597,125.254 85.422,125.258 85.224 C 125.262 85.027,125.365 84.746,125.487 84.599 C 125.790 84.233,125.616 84.263,125.280 84.634 M134.333 85.760 C 134.333 86.240,134.580 86.182,134.714 85.669 C 134.772 85.450,134.721 85.333,134.568 85.333 C 134.427 85.333,134.333 85.504,134.333 85.760 M124.149 86.105 C 124.021 86.259,123.917 86.617,123.917 86.901 C 123.917 87.335,123.852 87.417,123.513 87.420 C 123.290 87.422,123.074 87.528,123.032 87.655 C 122.979 87.813,123.041 87.853,123.227 87.782 C 123.377 87.724,123.500 87.750,123.500 87.839 C 123.500 87.927,123.388 88.000,123.250 88.000 C 123.095 88.000,123.000 88.157,123.000 88.411 C 123.000 88.691,123.073 88.795,123.228 88.735 C 123.455 88.648,123.735 89.089,123.596 89.313 C 123.556 89.377,124.460 90.362,125.605 91.501 C 127.248 93.138,127.718 93.522,127.840 93.328 C 127.970 93.123,127.995 93.131,127.997 93.375 C 127.999 93.535,128.075 93.667,128.167 93.667 C 128.258 93.667,128.333 93.554,128.333 93.417 C 128.333 93.279,128.431 93.167,128.551 93.167 C 128.671 93.167,128.915 93.049,129.093 92.904 C 129.271 92.760,129.323 92.689,129.208 92.747 C 129.094 92.806,129.000 92.774,129.000 92.677 C 129.000 92.579,128.867 92.500,128.704 92.500 C 128.399 92.500,127.833 91.957,127.833 91.665 C 127.833 91.574,127.748 91.500,127.645 91.500 C 127.397 91.500,126.833 90.845,126.833 90.558 C 126.833 90.434,126.685 90.333,126.503 90.333 C 126.290 90.333,126.136 90.186,126.068 89.917 C 126.009 89.680,125.843 89.500,125.686 89.500 C 125.395 89.500,124.833 88.950,124.833 88.665 C 124.833 88.574,124.748 88.500,124.645 88.500 C 124.377 88.500,123.797 87.794,123.969 87.679 C 124.179 87.539,124.340 86.809,124.133 86.937 C 124.025 87.004,124.009 86.899,124.088 86.646 C 124.156 86.428,124.293 86.198,124.393 86.134 C 124.492 86.070,124.530 85.975,124.477 85.922 C 124.424 85.869,124.276 85.951,124.149 86.105 M133.541 87.417 C 133.601 87.733,133.550 87.833,133.329 87.833 C 133.129 87.833,133.012 88.002,132.955 88.375 C 132.844 89.107,132.885 89.108,133.364 88.378 C 133.910 87.547,134.049 87.000,133.715 87.000 C 133.534 87.000,133.484 87.120,133.541 87.417 M102.464 87.833 C 102.505 88.108,102.612 88.333,102.703 88.333 C 102.794 88.333,102.823 88.215,102.768 88.070 C 102.712 87.925,102.667 87.700,102.667 87.570 C 102.667 87.440,102.605 87.333,102.529 87.333 C 102.453 87.333,102.424 87.558,102.464 87.833 M125.603 90.286 C 125.496 90.393,123.667 88.550,123.667 88.337 C 123.667 88.235,124.118 88.616,124.670 89.184 C 125.222 89.751,125.642 90.247,125.603 90.286 M131.933 89.623 C 131.878 89.677,131.833 89.881,131.833 90.074 C 131.833 90.268,131.715 90.611,131.571 90.838 C 131.377 91.142,131.423 91.119,131.746 90.750 C 132.406 89.996,132.533 89.715,132.263 89.611 C 132.136 89.563,131.988 89.568,131.933 89.623 M127.263 91.769 C 128.299 92.837,128.430 93.000,128.248 93.000 C 128.143 93.000,126.000 90.847,126.000 90.742 C 126.000 90.531,126.287 90.764,127.263 91.769 M129.428 93.083 C 129.078 93.404,128.861 93.667,128.946 93.667 C 129.032 93.667,129.356 93.404,129.667 93.083 C 129.978 92.763,130.194 92.500,130.149 92.500 C 130.103 92.500,129.779 92.763,129.428 93.083 M85.917 93.942 C 80.989 94.730,77.407 97.197,74.714 101.657 L 74.167 102.564 74.167 100.193 C 74.167 96.975,73.774 96.108,71.917 95.231 C 69.945 94.299,67.735 95.069,66.734 97.036 L 66.333 97.822 66.333 116.255 C 66.333 134.550,66.336 134.694,66.680 135.493 C 67.717 137.905,71.093 138.453,73.023 136.523 C 74.194 135.352,74.165 135.677,74.166 123.792 C 74.167 109.924,74.426 108.394,77.395 104.750 C 80.197 101.310,82.964 100.314,86.890 101.333 C 90.182 102.188,91.551 101.847,92.535 99.929 C 94.326 96.434,90.722 93.174,85.917 93.942 M111.667 93.934 C 107.416 94.713,105.909 95.292,102.583 97.420 C 101.392 98.182,98.746 100.778,98.086 101.833 C 97.828 102.246,97.564 102.621,97.500 102.667 C 96.538 103.352,94.405 108.794,93.905 111.837 C 91.993 123.479,96.767 132.834,106.750 137.009 C 111.326 138.923,119.133 138.911,123.474 136.983 C 130.653 133.794,133.408 130.026,130.574 127.274 C 129.332 126.068,126.916 126.115,125.594 127.372 C 121.786 130.992,115.124 132.162,109.816 130.143 C 105.307 128.428,102.108 124.220,101.251 118.875 L 101.137 118.167 115.861 118.167 C 131.454 118.167,131.269 118.176,132.344 117.325 C 135.195 115.067,133.454 106.787,128.957 101.212 C 126.234 97.838,121.908 95.130,118.000 94.356 C 117.496 94.256,116.858 94.130,116.583 94.075 C 115.921 93.944,112.197 93.837,111.667 93.934 M37.005 94.351 C 33.500 94.886,28.970 97.457,26.815 100.135 L 26.379 100.676 26.291 99.129 C 26.168 96.976,25.694 96.015,24.361 95.216 C 22.138 93.884,19.063 95.140,18.489 97.614 C 18.264 98.582,18.291 150.426,18.517 151.238 C 19.308 154.087,23.200 154.907,25.314 152.670 C 26.261 151.667,26.243 151.865,26.333 141.711 L 26.417 132.339 27.417 133.309 C 38.623 144.180,56.797 136.914,59.248 120.583 C 61.614 104.815,50.938 92.223,37.005 94.351 M159.833 94.264 C 157.867 94.610,157.286 94.759,156.000 95.250 C 153.621 96.158,151.376 97.643,149.513 99.541 L 148.548 100.524 148.464 99.051 C 148.349 97.042,147.878 96.128,146.500 95.236 C 144.362 93.854,141.233 95.127,140.656 97.614 C 140.462 98.449,140.462 150.218,140.656 151.053 C 141.330 153.959,145.281 154.970,147.362 152.769 C 148.453 151.616,148.412 152.030,148.465 141.678 L 148.513 132.273 149.548 133.275 C 152.441 136.077,156.675 138.021,160.533 138.320 C 162.121 138.443,165.679 138.282,166.019 138.071 C 166.114 138.013,166.646 137.859,167.201 137.729 C 171.911 136.630,176.728 132.538,179.275 127.472 C 179.582 126.861,179.834 126.298,179.834 126.222 C 179.835 126.146,179.941 125.881,180.070 125.634 C 181.477 122.937,182.141 114.864,181.273 111.000 C 179.288 102.163,173.880 96.215,166.333 94.572 C 165.138 94.311,160.746 94.103,159.833 94.264 M116.667 101.601 C 121.273 102.647,125.333 107.104,125.333 111.114 L 125.333 111.500 113.500 111.500 C 99.941 111.500,101.402 111.726,102.019 109.726 C 103.538 104.803,106.970 102.010,112.417 101.267 C 113.225 101.157,115.497 101.335,116.667 101.601 M42.802 102.058 C 55.632 106.574,54.774 127.990,41.651 130.768 C 37.109 131.730,32.076 130.022,29.284 126.572 C 24.474 120.628,24.860 110.179,30.076 105.102 C 30.847 104.351,32.383 103.167,32.585 103.167 C 32.661 103.167,32.842 103.063,32.987 102.935 C 33.288 102.670,35.425 101.876,36.417 101.661 C 37.798 101.361,41.469 101.589,42.802 102.058 M164.974 102.065 C 171.671 104.375,175.457 112.135,173.758 120.068 C 170.563 134.984,150.752 134.524,148.310 119.476 C 147.008 111.458,150.576 104.323,156.960 102.178 C 159.458 101.339,162.736 101.292,164.974 102.065 " stroke="none" fill="#08c836" fill-rule="evenodd"></path><path id="path1" d="M208.500 93.881 C 208.454 93.927,208.079 94.010,207.667 94.065 C 203.095 94.674,199.692 97.135,196.551 102.103 C 196.392 102.355,196.351 101.964,196.343 100.120 C 196.330 96.980,195.923 96.100,194.083 95.231 C 192.078 94.282,189.898 95.060,188.846 97.098 L 188.494 97.780 188.539 116.515 L 188.583 135.250 188.967 135.862 C 190.239 137.889,193.250 138.311,195.023 136.710 C 196.332 135.527,196.240 136.461,196.335 123.333 L 196.421 111.583 196.891 110.000 C 198.277 105.331,201.541 101.775,205.133 101.019 C 206.442 100.744,206.939 100.784,209.056 101.333 C 212.603 102.254,214.199 101.699,214.913 99.295 C 215.793 96.329,213.768 94.095,210.000 93.878 C 209.221 93.833,208.546 93.834,208.500 93.881 M233.917 93.947 C 230.541 94.379,226.419 96.137,224.225 98.080 C 212.468 108.493,214.308 129.568,227.573 136.422 C 228.747 137.029,229.465 137.299,231.750 137.995 C 237.137 139.635,244.515 137.541,248.728 133.178 L 249.833 132.032 249.833 133.261 C 249.833 137.732,255.569 139.519,257.348 135.603 C 257.788 134.632,257.845 97.584,257.408 96.536 C 255.728 92.516,250.136 93.993,249.835 98.537 L 249.750 99.824 248.750 98.864 C 244.976 95.239,239.083 93.286,233.917 93.947 M287.333 93.880 C 287.287 93.926,286.920 94.008,286.516 94.064 C 284.429 94.349,280.851 95.772,279.441 96.877 C 277.830 98.140,276.556 99.317,275.870 100.176 L 275.083 101.160 274.981 99.455 C 274.925 98.515,274.764 97.488,274.624 97.167 C 273.388 94.344,269.502 94.029,267.726 96.607 L 267.083 97.540 267.031 115.729 C 266.973 136.194,266.922 135.244,268.141 136.500 C 269.984 138.401,273.106 137.997,274.467 135.682 L 274.917 134.917 275.003 122.250 L 275.088 109.583 275.521 108.415 C 278.426 100.563,290.475 98.488,294.225 105.194 C 295.589 107.634,295.559 107.284,295.660 121.833 C 295.744 133.843,295.771 134.799,296.053 135.442 C 297.320 138.333,301.566 138.438,303.181 135.619 L 303.583 134.917 303.578 121.333 L 303.573 107.750 303.142 105.738 C 302.188 101.290,300.476 98.159,298.124 96.564 C 297.735 96.300,297.379 96.036,297.333 95.977 C 296.962 95.499,293.986 94.443,292.000 94.085 C 291.204 93.942,287.437 93.776,287.333 93.880 M328.417 93.934 C 326.804 94.174,324.435 94.762,323.356 95.191 C 306.405 101.924,305.919 129.442,322.619 136.828 C 330.373 140.257,339.838 138.079,344.331 131.833 L 344.870 131.083 344.779 134.250 C 344.672 137.903,344.550 138.566,343.628 140.500 C 341.638 144.674,336.846 146.960,330.833 146.603 C 328.286 146.452,326.483 145.998,321.500 144.252 C 318.028 143.036,315.667 144.201,315.667 147.131 C 315.667 148.374,317.045 150.333,317.920 150.333 C 318.033 150.333,318.224 150.452,318.345 150.597 C 318.929 151.301,321.485 152.289,324.583 153.009 C 325.317 153.179,326.241 153.398,326.637 153.495 C 329.997 154.320,337.522 153.862,340.083 152.677 C 340.267 152.593,340.717 152.433,341.083 152.322 C 345.703 150.926,350.392 146.053,351.755 141.232 C 352.621 138.167,352.562 139.759,352.622 117.872 C 352.663 103.035,352.627 97.303,352.489 96.792 C 351.859 94.453,348.357 93.510,346.236 95.109 C 345.271 95.838,344.833 97.022,344.833 98.906 L 344.833 100.558 343.542 99.309 C 341.539 97.372,340.155 96.458,337.164 95.099 C 335.310 94.256,330.533 93.620,328.417 93.934 M375.750 93.947 C 355.423 96.550,350.662 127.530,369.250 136.245 C 371.507 137.303,372.334 137.565,375.333 138.174 C 378.850 138.888,384.481 138.334,387.717 136.955 C 388.722 136.527,391.377 135.165,391.500 135.015 C 391.546 134.959,391.883 134.717,392.250 134.476 C 395.985 132.025,396.911 128.722,394.365 126.929 C 393.344 126.210,390.945 126.281,390.123 127.055 C 383.515 133.276,372.541 132.309,367.745 125.083 C 366.694 123.499,365.333 119.692,365.333 118.335 C 365.333 118.223,370.310 118.167,380.172 118.167 C 396.304 118.167,395.561 118.209,396.659 117.231 C 398.149 115.903,398.323 113.652,397.261 109.417 C 395.693 103.162,390.808 97.386,385.417 95.414 C 384.958 95.246,384.508 95.059,384.417 94.997 C 383.346 94.278,378.115 93.645,375.750 93.947 M238.615 101.334 C 245.355 102.044,250.167 108.260,250.167 116.259 C 250.167 119.188,249.296 122.780,248.168 124.500 C 248.078 124.638,247.880 124.975,247.728 125.250 C 245.307 129.623,239.321 132.055,234.115 130.778 C 219.764 127.260,221.417 102.489,236.083 101.278 C 236.450 101.247,236.825 101.211,236.917 101.198 C 237.008 101.184,237.772 101.245,238.615 101.334 M334.455 101.522 C 340.736 102.728,345.015 108.612,345.046 116.083 C 345.060 119.666,344.753 121.010,343.211 124.118 C 338.332 133.947,323.202 133.183,319.417 122.917 C 319.248 122.458,319.056 122.008,318.992 121.917 C 318.223 120.827,317.933 114.102,318.556 111.833 C 320.644 104.232,327.024 100.094,334.455 101.522 M380.883 101.594 C 385.503 102.723,389.500 107.135,389.500 111.106 L 389.500 111.500 377.645 111.500 L 365.791 111.500 365.901 110.811 C 366.949 104.257,374.007 99.915,380.883 101.594 " stroke="none" fill="#fc0464" fill-rule="evenodd"></path><path id="path2" d="M110.415 64.003 C 110.375 64.067,110.022 64.164,109.630 64.218 C 108.731 64.342,107.297 64.918,106.367 65.529 C 105.972 65.788,105.581 66.000,105.497 66.000 C 105.345 66.000,103.163 68.128,102.647 68.779 C 102.028 69.559,101.173 71.207,100.916 72.113 C 100.765 72.647,100.577 73.308,100.498 73.583 C 99.959 75.479,99.962 77.906,100.506 79.250 C 100.580 79.433,100.683 79.883,100.735 80.250 C 100.977 81.951,103.305 85.372,104.586 85.907 C 105.528 86.301,105.621 86.236,108.792 82.978 C 111.054 80.653,111.092 80.513,109.877 78.967 C 108.352 77.025,108.784 74.427,110.836 73.203 C 111.641 72.724,113.162 72.444,113.588 72.698 C 113.677 72.751,113.975 72.844,114.250 72.905 C 116.527 73.411,117.372 76.671,115.819 78.957 C 114.723 80.571,114.762 80.675,117.491 83.416 C 120.527 86.464,121.032 86.604,122.519 84.805 C 123.329 83.825,124.000 82.897,124.000 82.756 C 124.000 82.706,124.188 82.276,124.417 81.801 C 124.646 81.326,124.833 80.838,124.833 80.717 C 124.833 80.595,124.910 80.365,125.005 80.206 C 125.775 78.905,125.587 73.987,124.689 71.940 C 124.522 71.560,124.285 70.987,124.161 70.667 C 124.037 70.346,123.886 70.046,123.826 70.000 C 123.766 69.954,123.523 69.608,123.287 69.231 C 122.778 68.417,120.105 65.910,119.309 65.499 C 118.189 64.920,117.234 64.525,116.500 64.337 C 116.087 64.232,115.507 64.070,115.209 63.979 C 114.613 63.795,110.530 63.816,110.415 64.003 M90.352 69.061 C 90.203 69.240,90.200 69.334,90.340 69.421 C 90.612 69.589,90.949 69.215,90.726 68.993 C 90.606 68.872,90.491 68.893,90.352 69.061 M90.121 71.677 C 90.187 71.929,90.116 72.044,89.855 72.113 C 89.467 72.214,89.375 72.592,89.708 72.717 C 89.854 72.772,89.822 72.868,89.600 73.039 C 89.381 73.207,89.342 73.319,89.475 73.401 C 89.715 73.550,89.728 74.167,89.491 74.167 C 89.274 74.167,89.304 80.796,89.522 80.930 C 89.601 80.979,89.668 81.184,89.669 81.385 C 89.670 81.586,89.780 82.062,89.913 82.443 C 90.046 82.825,90.188 83.312,90.229 83.527 C 90.335 84.081,90.476 84.467,90.918 85.417 C 91.132 85.875,91.426 86.513,91.572 86.833 C 92.940 89.841,96.245 93.833,97.368 93.833 C 98.285 93.833,103.258 88.716,102.699 88.347 C 102.619 88.294,102.508 88.019,102.453 87.736 C 102.398 87.454,102.111 86.966,101.816 86.653 C 101.215 86.015,99.333 83.221,99.333 82.966 C 99.333 82.875,99.167 82.568,98.964 82.283 C 98.761 81.998,98.587 81.649,98.576 81.507 C 98.566 81.366,98.544 81.077,98.529 80.865 C 98.513 80.654,98.429 80.524,98.342 80.578 C 98.255 80.632,98.114 80.543,98.030 80.380 C 97.873 80.076,97.881 79.840,98.074 79.146 C 98.180 78.764,98.175 78.761,97.925 79.074 C 97.672 79.391,97.667 79.390,97.667 79.033 C 97.667 78.814,97.284 78.277,96.708 77.689 C 96.181 77.150,95.675 76.628,95.583 76.530 C 95.492 76.432,95.052 76.028,94.606 75.634 C 94.160 75.239,93.710 74.814,93.606 74.689 C 93.173 74.168,90.250 71.333,90.145 71.333 C 90.083 71.333,90.072 71.488,90.121 71.677 M108.167 86.927 C 108.167 87.120,108.305 87.174,108.695 87.136 C 109.460 87.060,109.517 86.667,108.764 86.667 C 108.333 86.667,108.167 86.739,108.167 86.927 M104.937 90.467 C 104.874 90.569,104.713 90.610,104.578 90.558 C 104.443 90.507,104.333 90.535,104.333 90.622 C 104.333 90.709,104.623 90.867,104.978 90.974 C 105.802 91.221,105.833 91.218,105.833 90.903 C 105.833 90.758,105.740 90.670,105.625 90.709 C 105.510 90.748,105.334 90.668,105.234 90.531 C 105.108 90.360,105.015 90.340,104.937 90.467 M103.500 91.917 C 103.500 92.569,103.755 92.709,103.867 92.119 C 103.954 91.664,103.864 91.333,103.653 91.333 C 103.569 91.333,103.500 91.596,103.500 91.917 M112.750 101.327 C 112.450 101.451,112.445 101.476,112.701 101.580 C 112.864 101.647,113.145 101.584,113.363 101.432 C 113.798 101.126,113.402 101.059,112.750 101.327 M116.000 102.417 C 116.000 102.588,116.109 102.670,116.292 102.635 C 116.643 102.567,116.621 102.271,116.259 102.196 C 116.108 102.165,116.000 102.257,116.000 102.417 M115.273 103.449 C 115.074 103.648,115.166 104.000,115.417 104.000 C 115.554 104.000,115.667 103.892,115.667 103.760 C 115.667 103.481,115.429 103.293,115.273 103.449 M118.000 103.653 C 118.000 103.858,118.108 104.000,118.262 104.000 C 118.417 104.000,118.502 103.887,118.471 103.722 C 118.389 103.304,118.000 103.247,118.000 103.653 M115.261 104.316 C 115.150 104.495,115.633 104.707,115.848 104.574 C 115.932 104.522,116.000 104.410,116.000 104.323 C 116.000 104.124,115.383 104.117,115.261 104.316 M117.167 105.000 C 117.167 105.185,117.278 105.333,117.417 105.333 C 117.556 105.333,117.667 105.185,117.667 105.000 C 117.667 104.815,117.556 104.667,117.417 104.667 C 117.278 104.667,117.167 104.815,117.167 105.000 M116.417 105.167 C 116.360 105.258,116.468 105.333,116.657 105.333 C 116.846 105.333,117.000 105.258,117.000 105.167 C 117.000 105.075,116.892 105.000,116.760 105.000 C 116.628 105.000,116.473 105.075,116.417 105.167 " stroke="none" fill="#baf2a3" fill-rule="evenodd"></path><path id="path3" d="M109.417 53.027 C 108.886 53.126,108.481 53.316,108.302 53.549 C 108.044 53.884,108.011 53.890,107.908 53.620 C 107.835 53.429,107.727 53.377,107.606 53.473 C 107.417 53.621,107.156 53.664,106.292 53.691 C 105.959 53.702,105.833 53.792,105.833 54.019 C 105.833 54.192,105.758 54.333,105.667 54.333 C 105.575 54.333,105.500 54.265,105.500 54.181 C 105.500 54.012,105.074 54.037,104.894 54.217 C 104.830 54.281,104.640 54.333,104.472 54.333 C 104.304 54.333,104.167 54.416,104.167 54.518 C 104.167 54.619,104.054 54.659,103.917 54.606 C 103.747 54.541,103.667 54.615,103.667 54.839 C 103.667 55.195,103.341 55.274,103.054 54.987 C 102.926 54.859,102.900 54.943,102.964 55.279 C 103.044 55.696,103.023 55.725,102.786 55.529 C 102.378 55.192,101.782 55.357,101.534 55.876 C 101.360 56.239,101.234 56.315,100.930 56.238 C 100.627 56.162,100.523 56.224,100.439 56.529 C 100.356 56.834,100.301 56.867,100.183 56.683 C 100.061 56.493,99.953 56.533,99.622 56.891 C 99.396 57.134,99.089 57.333,98.939 57.333 C 98.789 57.333,98.667 57.446,98.667 57.583 C 98.667 57.721,98.610 57.824,98.542 57.814 C 98.139 57.750,98.000 57.886,98.000 58.344 C 98.000 58.733,97.930 58.846,97.708 58.818 C 97.043 58.736,96.056 59.416,96.342 59.760 C 96.465 59.908,96.457 60.007,96.316 60.094 C 96.189 60.173,96.159 60.148,96.234 60.026 C 96.371 59.804,96.181 59.776,95.872 59.973 C 95.720 60.069,95.791 60.174,96.122 60.345 C 96.736 60.662,96.933 60.860,97.073 61.299 C 97.139 61.509,97.326 61.667,97.508 61.667 C 97.708 61.667,97.865 61.820,97.930 62.077 C 97.987 62.303,98.191 62.538,98.384 62.599 C 98.833 62.742,99.093 63.005,99.239 63.466 C 99.303 63.668,99.493 63.833,99.660 63.833 C 99.845 63.833,100.005 63.996,100.068 64.250 C 100.136 64.517,100.290 64.667,100.500 64.667 C 100.705 64.667,100.864 64.814,100.926 65.062 C 100.981 65.280,101.207 65.541,101.429 65.642 C 101.652 65.743,101.833 65.938,101.833 66.075 C 101.833 66.226,101.930 66.286,102.082 66.227 C 102.219 66.175,102.294 66.071,102.249 65.998 C 102.109 65.772,102.363 65.309,102.580 65.392 C 102.805 65.479,103.202 65.082,103.395 64.581 C 103.498 64.312,103.543 64.299,103.669 64.503 C 103.791 64.702,103.859 64.707,104.033 64.533 C 104.207 64.359,104.201 64.290,103.999 64.162 C 103.746 64.002,103.792 63.980,104.458 63.941 C 104.619 63.932,104.850 63.828,104.972 63.711 C 105.094 63.593,105.254 63.535,105.329 63.581 C 105.403 63.627,105.511 63.477,105.569 63.249 C 105.668 62.855,106.167 62.647,106.167 63.000 C 106.167 63.092,106.242 63.167,106.333 63.167 C 106.425 63.167,106.500 63.063,106.500 62.937 C 106.500 62.563,106.996 62.224,107.159 62.487 C 107.301 62.718,108.000 62.589,108.000 62.332 C 108.000 62.251,108.153 62.215,108.341 62.251 C 108.862 62.352,109.140 62.183,109.045 61.823 C 108.955 61.477,109.238 61.377,109.429 61.687 C 109.566 61.909,111.092 61.770,111.408 61.507 C 111.521 61.413,111.667 61.389,111.731 61.454 C 111.916 61.638,113.726 61.641,113.958 61.457 C 114.104 61.342,114.167 61.362,114.167 61.521 C 114.167 61.676,114.416 61.764,114.932 61.794 C 115.352 61.818,115.838 61.913,116.011 62.006 C 116.264 62.141,116.307 62.124,116.228 61.921 C 116.117 61.631,116.422 61.572,116.594 61.850 C 116.727 62.065,117.724 62.503,118.329 62.611 C 118.560 62.652,118.775 62.757,118.806 62.844 C 118.837 62.931,118.930 62.960,119.014 62.908 C 119.098 62.856,119.167 62.893,119.167 62.990 C 119.167 63.087,119.268 63.167,119.391 63.167 C 119.734 63.167,120.667 63.670,120.667 63.855 C 120.667 63.946,120.742 63.973,120.833 63.917 C 120.925 63.860,121.000 63.893,121.000 63.990 C 121.000 64.087,121.112 64.167,121.250 64.167 C 121.388 64.167,121.500 64.228,121.500 64.303 C 121.500 64.377,121.781 64.597,122.125 64.791 C 122.674 65.100,123.547 65.947,124.335 66.935 C 124.736 67.437,126.167 69.645,126.167 69.761 C 126.167 69.889,126.600 70.911,126.927 71.555 C 127.059 71.815,127.167 72.171,127.167 72.347 C 127.167 72.523,127.279 72.667,127.417 72.667 C 127.713 72.667,127.736 72.893,127.483 73.299 C 127.345 73.519,127.356 73.741,127.525 74.172 C 127.814 74.908,127.747 78.975,127.442 79.280 C 127.269 79.453,127.316 79.697,127.500 79.583 C 127.595 79.525,127.667 79.667,127.667 79.912 C 127.667 80.150,127.554 80.387,127.417 80.440 C 127.279 80.492,127.167 80.661,127.167 80.814 C 127.167 80.967,127.050 81.259,126.907 81.463 C 126.765 81.667,126.696 81.833,126.755 81.833 C 126.814 81.833,126.673 82.171,126.443 82.583 C 126.212 82.996,126.093 83.333,126.178 83.333 C 126.264 83.333,126.333 83.446,126.333 83.583 C 126.333 83.721,126.253 83.833,126.155 83.833 C 125.934 83.833,125.487 84.264,125.595 84.373 C 125.639 84.417,125.565 84.544,125.431 84.655 C 125.296 84.767,125.228 84.965,125.278 85.096 C 125.441 85.521,125.200 85.902,124.917 85.667 C 124.717 85.501,124.649 85.520,124.556 85.773 C 124.493 85.944,124.389 86.121,124.326 86.167 C 124.132 86.308,123.945 87.054,124.133 86.937 C 124.340 86.809,124.179 87.539,123.969 87.679 C 123.797 87.794,124.377 88.500,124.645 88.500 C 124.748 88.500,124.833 88.574,124.833 88.665 C 124.833 88.950,125.395 89.500,125.686 89.500 C 125.843 89.500,126.009 89.680,126.068 89.917 C 126.136 90.186,126.290 90.333,126.503 90.333 C 126.685 90.333,126.833 90.434,126.833 90.558 C 126.833 90.845,127.397 91.500,127.645 91.500 C 127.748 91.500,127.833 91.574,127.833 91.665 C 127.833 91.957,128.399 92.500,128.704 92.500 C 128.867 92.500,129.000 92.579,129.000 92.677 C 129.000 92.774,129.094 92.806,129.208 92.747 C 129.323 92.689,129.271 92.760,129.093 92.904 C 128.915 93.049,128.671 93.167,128.551 93.167 C 128.431 93.167,128.333 93.275,128.333 93.407 C 128.333 93.881,128.671 93.840,129.212 93.300 C 129.515 92.997,129.968 92.615,130.220 92.451 C 130.471 92.287,130.633 92.080,130.579 91.993 C 130.525 91.905,130.580 91.833,130.701 91.833 C 130.822 91.833,131.104 91.538,131.327 91.177 C 131.550 90.816,131.787 90.555,131.855 90.597 C 131.922 90.638,132.031 90.584,132.098 90.477 C 132.176 90.351,132.146 90.327,132.013 90.409 C 131.865 90.500,131.823 90.403,131.862 90.059 C 131.905 89.686,131.992 89.594,132.264 89.631 C 132.607 89.678,133.000 88.863,133.000 88.106 C 133.000 87.951,133.134 87.833,133.310 87.833 C 133.551 87.833,133.603 87.740,133.541 87.417 C 133.477 87.084,133.529 87.000,133.796 87.000 C 134.186 87.000,134.333 86.698,134.333 85.903 C 134.333 85.508,134.410 85.333,134.583 85.333 C 134.721 85.333,134.833 85.221,134.833 85.083 C 134.833 84.946,134.923 84.833,135.033 84.833 C 135.189 84.833,135.189 84.789,135.033 84.633 C 134.763 84.363,134.780 84.000,135.064 84.000 C 135.191 84.000,135.349 83.831,135.416 83.625 C 135.484 83.419,135.553 83.212,135.572 83.167 C 135.841 82.489,135.966 81.733,135.830 81.597 C 135.583 81.350,135.634 81.000,135.917 81.000 C 136.056 81.000,136.167 80.852,136.167 80.667 C 136.167 80.187,136.182 80.116,136.357 79.789 C 136.472 79.574,136.446 79.469,136.257 79.396 C 135.938 79.274,135.912 78.357,136.224 78.237 C 136.397 78.171,136.444 77.631,136.432 75.842 C 136.424 74.571,136.379 73.555,136.333 73.583 C 136.287 73.612,136.257 73.411,136.265 73.138 C 136.282 72.575,136.036 71.398,135.808 70.952 C 135.724 70.787,135.697 70.586,135.747 70.505 C 135.798 70.423,135.766 70.311,135.677 70.256 C 135.588 70.201,135.554 70.053,135.602 69.928 C 135.650 69.803,135.608 69.650,135.509 69.589 C 135.409 69.527,135.368 69.412,135.417 69.333 C 135.465 69.254,135.429 69.143,135.336 69.085 C 135.243 69.027,135.167 68.797,135.167 68.573 C 135.167 68.350,135.092 68.167,135.000 68.167 C 134.908 68.167,134.849 68.110,134.869 68.042 C 134.888 67.973,134.807 67.741,134.688 67.527 C 134.570 67.313,134.440 66.958,134.400 66.738 C 134.360 66.518,134.104 65.959,133.831 65.495 C 133.557 65.031,133.333 64.588,133.333 64.510 C 133.333 64.433,133.216 64.324,133.073 64.269 C 132.929 64.214,132.859 64.093,132.916 64.001 C 132.973 63.909,132.940 63.833,132.843 63.833 C 132.746 63.833,132.667 63.744,132.667 63.635 C 132.667 63.455,131.537 61.897,130.816 61.083 C 129.661 59.780,128.225 58.333,128.085 58.333 C 127.992 58.332,127.681 58.111,127.394 57.842 C 127.106 57.572,126.827 57.396,126.773 57.450 C 126.719 57.504,126.626 57.423,126.568 57.270 C 126.485 57.054,126.409 57.034,126.231 57.183 C 126.047 57.335,126.000 57.303,126.000 57.020 C 126.000 56.826,125.941 56.667,125.870 56.667 C 125.798 56.667,125.534 56.502,125.284 56.301 C 124.771 55.888,123.767 55.425,123.920 55.672 C 123.975 55.761,123.958 55.833,123.883 55.833 C 123.808 55.833,123.651 55.679,123.533 55.491 C 123.379 55.245,123.221 55.180,122.968 55.260 C 122.697 55.346,122.639 55.314,122.713 55.119 C 122.785 54.933,122.659 54.838,122.238 54.759 C 121.924 54.700,121.667 54.580,121.667 54.492 C 121.667 54.405,121.516 54.333,121.332 54.333 C 121.147 54.333,120.670 54.180,120.271 53.992 C 119.872 53.805,119.479 53.667,119.398 53.686 C 119.317 53.704,119.138 53.679,119.000 53.629 C 118.304 53.376,117.290 53.154,117.207 53.237 C 117.156 53.288,117.014 53.248,116.892 53.147 C 116.771 53.045,116.567 53.003,116.439 53.052 C 116.312 53.101,116.118 53.053,116.008 52.945 C 115.856 52.796,115.822 52.804,115.863 52.979 C 115.893 53.105,115.823 53.243,115.708 53.285 C 115.594 53.327,115.500 53.242,115.500 53.097 C 115.500 52.952,115.388 52.833,115.250 52.833 C 115.112 52.833,114.998 52.965,114.995 53.125 C 114.990 53.403,114.982 53.403,114.820 53.125 C 114.621 52.783,112.042 52.692,111.719 53.015 C 111.588 53.145,111.506 53.145,111.426 53.015 C 111.295 52.803,110.588 52.807,109.417 53.027 M95.833 60.794 C 95.833 60.977,96.641 61.750,96.730 61.653 C 96.766 61.615,96.579 61.372,96.314 61.115 C 96.050 60.857,95.833 60.712,95.833 60.794 M100.684 66.750 C 100.698 67.117,100.948 67.553,101.049 67.388 C 101.108 67.293,101.048 67.073,100.917 66.900 C 100.785 66.726,100.680 66.658,100.684 66.750 M127.167 82.500 C 127.167 82.592,127.054 82.667,126.917 82.667 C 126.779 82.667,126.667 82.592,126.667 82.500 C 126.667 82.408,126.779 82.333,126.917 82.333 C 127.054 82.333,127.167 82.408,127.167 82.500 M123.649 86.708 C 123.036 87.223,122.976 87.451,123.459 87.433 C 123.814 87.420,124.263 86.500,123.915 86.500 C 123.905 86.500,123.785 86.594,123.649 86.708 M123.667 88.337 C 123.667 88.550,125.496 90.393,125.603 90.286 C 125.642 90.247,125.222 89.751,124.670 89.184 C 124.118 88.616,123.667 88.235,123.667 88.337 M123.119 88.770 C 123.062 88.827,123.128 88.986,123.266 89.123 C 123.562 89.419,123.717 89.326,123.569 88.941 C 123.460 88.656,123.296 88.593,123.119 88.770 M126.000 90.742 C 126.000 90.847,128.143 93.000,128.248 93.000 C 128.430 93.000,128.299 92.837,127.263 91.769 C 126.287 90.764,126.000 90.531,126.000 90.742 " stroke="none" fill="#08c835" fill-rule="evenodd"></path><path id="path4" d="" stroke="none" fill="#b440b0" fill-rule="evenodd"></path><path id="path5" d="" stroke="none" fill="#1004048" fill-rule="evenodd"></path><path id="path6" d="" stroke="none" fill="#1004048" fill-rule="evenodd"></path><path id="path7" d="" stroke="none" fill="#1004048" fill-rule="evenodd"></path><path id="path8" d="" stroke="none" fill="#1004048" fill-rule="evenodd"></path></g></svg>